<svg width="65" height="114" viewBox="0 0 65 114" fill="none" xmlns="http://www.w3.org/2000/svg">
<g clip-path="url(#clip0_65_25)">
<path d="M27.136 93.696C21.6747 93.696 16.896 92.288 12.8 89.472C8.704 86.5707 5.54667 82.4747 3.328 77.184C1.10934 71.8933 0 65.5787 0 58.24C0 47.1467 2.432 38.4853 7.296 32.256C12.16 25.9413 18.7733 22.784 27.136 22.784C32.0853 22.784 36.2667 23.8507 39.68 25.984C43.0933 28.1173 45.6107 31.1893 47.232 35.2H49.536C49.3653 31.7867 49.2373 28.9707 49.152 26.752C49.0667 24.448 49.024 22.3147 49.024 20.352V0H64.64V92.416H50.432V80.256H48.256C46.3787 84.4373 43.648 87.7227 40.064 90.112C36.5653 92.5013 32.256 93.696 27.136 93.696ZM32.768 81.536C38.3147 81.536 42.4107 79.9573 45.056 76.8C47.7013 73.5573 49.024 68.5227 49.024 61.696V54.784C49.024 47.9573 47.7013 42.9653 45.056 39.808C42.4107 36.5653 38.3147 34.944 32.768 34.944C27.136 34.944 22.9973 36.5653 20.352 39.808C17.7067 42.9653 16.384 47.9573 16.384 54.784V61.696C16.384 68.5227 17.7067 73.5573 20.352 76.8C22.9973 79.9573 27.136 81.536 32.768 81.536Z" fill="white"/>
</g>
<defs>
<clipPath id="clip0_65_25">
<rect width="64.64" height="113.696" fill="white"/>
</clipPath>
</defs>
</svg>
