<svg width="215" height="156" viewBox="0 0 215 156" fill="none" xmlns="http://www.w3.org/2000/svg">
<path d="M138.995 81.9982V47.4175L39.7128 47.4175C39.7128 47.4175 38.4463 47.2123 37.7272 46.9235C36.9679 46.6185 36.2514 45.9355 36.2514 45.9355L11.6545 21.235C11.6545 21.235 11.0628 20.4873 10.4246 20.247C9.88068 20.0422 8.93539 20 8.93539 20H0.00227845L0 21.235V53.5926L46.1661 53.5926C46.1661 53.5926 47.2762 53.5825 47.9036 53.8396C48.5374 54.0993 49.1446 54.8277 49.1446 54.8277L74.9579 80.5161C74.9579 80.5161 75.9317 81.4472 76.6954 81.7511C77.4154 82.0377 78.4328 81.9981 78.4328 81.9981L138.995 81.9982Z" fill="white"/>
<path d="M0.00195312 72V106.583H84.3448C84.3448 106.583 85.6114 106.788 86.3305 107.077C87.0898 107.382 87.8064 108.065 87.8064 108.065L112.404 132.765C112.404 132.765 112.996 133.513 113.634 133.753C114.178 133.958 115.123 134 115.123 134H139.002V100.407H77.8912C77.8912 100.407 76.7812 100.418 76.1537 100.16C75.5199 99.9007 74.9127 99.1724 74.9127 99.1724L49.0984 73.484C49.0984 73.484 48.1246 72.5529 47.3609 72.2489C46.6409 71.9623 45.6234 72.0019 45.6234 72.0019L0.00195312 72Z" fill="white"/>
<g clip-path="url(#clip0_65_50)">
<path d="M168.002 135.32H152.002V96.5L168.002 96.408V84.12H152.002V47H214.21V59.8H168.002V84.12H203.842V96.408H168.002V135.32Z" fill="white"/>
</g>
<defs>
<clipPath id="clip0_65_50">
<rect width="63" height="89" fill="white" transform="translate(152.002 47)"/>
</clipPath>
</defs>
</svg>
